# xmcd
#
# Track frame offsets:
#	150
#	10056
#	18605
#	32330
#	48380
#	60156
#	72905
#	86405
#	96605
#	110030
#	122405
#	138680
#	151656
#	169430
#	182180
#	191405
#	206180
#	222156
#	237457
#	254105
#	266330
#	285231
#
# Disc length: 3999 seconds
#
# Revision: 1
# Processed by: cddbd v1.5.2PL0 Copyright (c) Steve Scherf et al.
# Submitted via: audiograbber 1.83.01
#
DISCID=3e0f9d16
DTITLE=Mr. Arnold - Classic American Songs [Disc 2]
DYEAR=2002
DGENRE=Country
TTITLE0=Chicago
TTITLE1=Come Fly With Me
TTITLE2=From Here To Eternity
TTITLE3=September Song
TTITLE4=Love And Marriage
TTITLE5=Everybody Loves Somebody
TTITLE6=That's Amore
TTITLE7=You're Nobody
TTITLE8=The Girl From Ipanema
TTITLE9=Quiet Nights Of Quiet Stars
TTITLE10=Dindi
TTITLE11=Meditation
TTITLE12=Night And Day
TTITLE13=I Left My Heart In San Francisco
TTITLE14=On A Wonderful Day
TTITLE15=All Or Nothing At All
TTITLE16=The Shadow Of Your Smile
TTITLE17=Somewhere Beyond The Sea
TTITLE18=May Be This Time
TTITLE19=A Taste Of Honey
TTITLE20=It Was A Very Good Year
TTITLE21=Besame Mucho
EXTD=
EXTT0=
EXTT1=
EXTT2=
EXTT3=
EXTT4=
EXTT5=
EXTT6=
EXTT7=
EXTT8=
EXTT9=
EXTT10=
EXTT11=
EXTT12=
EXTT13=
EXTT14=
EXTT15=
EXTT16=
EXTT17=
EXTT18=
EXTT19=
EXTT20=
EXTT21=
PLAYORDER=
